<?xml version="1.0" encoding="UTF-8"?>
<svg width="199px" height="28px" viewBox="0 0 199 28" version="1.1" xmlns="http://www.w3.org/2000/svg" xmlns:xlink="http://www.w3.org/1999/xlink">
    <title>Brand</title>
    <g id="Brand" stroke="none" stroke-width="1" fill="none" fill-rule="evenodd">
        <path d="M15.4086957,16.6782609 L12.5304348,16.6782609 C9.48086247,16.6782609 7.00869565,19.1504277 7.00869565,22.2 L7.00869565,24.573913 C7.00869565,26.4660886 5.47478427,28 3.5826087,28 C1.69043312,28 0.156521739,26.4660886 0.156521739,24.573913 L0.156521739,9.06956522 C0.156521739,3.82045886 4.4117632,-0.434782609 9.66086957,-0.434782609 L16.5217391,-0.434782609 C17.9816919,-0.434782609 19.1652174,0.748742922 19.1652174,2.20869565 C19.1652174,3.66864838 17.9816919,4.85217391 16.5217391,4.85217391 L10.2782609,4.85217391 C8.47252986,4.85217391 7.00869565,6.31600812 7.00869565,8.12173913 C7.00869565,9.92747014 8.47252986,11.3913043 10.2782609,11.3913043 L15.4086957,11.3913043 C16.8686484,11.3913043 18.0521739,12.5748299 18.0521739,14.0347826 C18.0521739,15.4947353 16.8686484,16.6782609 15.4086957,16.6782609 Z" id="Path" fill="#000000" fill-rule="nonzero"></path>
        <path d="M35.3934655,22.6956522 L31.5578844,22.6956522 C29.9741103,22.6956522 28.5679849,23.6869133 28.0281367,25.1610773 L27.9652174,25.3478261 C27.4793185,26.9244128 26.0223151,28 24.3725504,28 L23.4869565,28 C22.0744227,28 20.9293379,26.8549151 20.9293379,25.4423813 C20.9293379,25.142219 20.9821754,24.8443998 21.0854317,24.5625566 L29.1336994,2.59441333 C29.800271,0.774973493 31.5318658,-0.434782609 33.4695652,-0.434782609 C35.4082651,-0.434782609 37.1417697,0.772836797 37.8135862,2.5914131 L45.9253744,24.5496475 C46.4157747,25.8771386 45.7371786,27.3508308 44.4096876,27.8412311 C44.1254218,27.9462443 43.8247817,28 43.5217391,28 L42.6239258,28 C41.0380242,28 39.627831,27.0139428 39.0757797,25.5424691 L39.0086957,25.3478261 C38.5118536,23.7693175 37.0483194,22.6956522 35.3934655,22.6956522 Z M33.4782609,17.3913043 C34.7235679,17.3913043 35.7330886,16.3817836 35.7330886,15.1364766 C35.7330886,14.9098326 35.6989181,14.6844838 35.6317289,14.4680279 L35.0086957,12.4608696 C34.7463297,11.6156338 33.8484411,11.1431244 33.0032053,11.4054904 C32.4990563,11.5619811 32.1043168,11.9567206 31.9478261,12.4608696 L31.3247928,14.4680279 C30.9556188,15.6573555 31.6204847,16.9207706 32.8098122,17.2899446 C33.0262681,17.3571338 33.2516169,17.3913043 33.4782609,17.3913043 Z" id="Shape" fill="#000000" fill-rule="nonzero"></path>
        <path d="M63.9478261,20.4347826 C63.9478261,19.4376812 63.5942029,18.657971 62.8869565,18.0956522 C62.1797101,17.5333333 60.9333333,16.9536232 59.1478261,16.3565217 C57.3623188,15.7594203 55.9014493,15.1826087 54.7652174,14.626087 C51.0782609,12.8173913 49.2347826,10.3304348 49.2347826,7.16521739 C49.2347826,5.5884058 49.6956522,4.19710145 50.6173913,2.99130435 C51.5391304,1.78550725 52.8376812,0.846376812 54.5130435,0.173913043 C56.1884058,-0.498550725 58.0753623,-0.834782609 60.173913,-0.834782609 C62.226087,-0.834782609 64.0608696,-0.469565217 65.6782609,0.260869565 C67.2956522,0.991304348 68.5536232,2.03188406 69.4521739,3.3826087 C69.6086476,3.61782397 69.7549031,3.8966146 69.8909406,4.21898059 C70.4755175,5.60429182 69.8264137,7.20120967 68.4411096,7.78580359 C68.1061191,7.92716853 67.7462056,8 67.3826087,8 L65.4136635,8 C64.5397576,8 63.7548153,7.46537175 63.4347826,6.65217391 L63.1747452,5.99142323 C62.9873271,5.51761622 62.6265431,5.13282488 62.1649166,4.91713648 C61.3593653,4.53759622 60.6435236,4.34782609 60.0173913,4.34782609 C58.8,4.34782609 57.8347826,4.6173913 57.1217391,5.15652174 C56.4086957,5.69565217 56.0521739,6.3826087 56.0521739,7.2173913 C56.0521739,7.94782609 56.4434783,8.60869565 57.226087,9.2 C58.0086957,9.79130435 59.3826087,10.4028986 61.3478261,11.0347826 C63.3130435,11.6666667 64.9275362,12.3478261 66.1913043,13.0782609 C69.2637681,14.8521739 70.8,17.2927536 70.8,20.4 C70.8,22.8927536 69.8637681,24.8463768 67.9913043,26.2608696 C66.1188406,27.6753623 63.5478261,28.3826087 60.2782609,28.3826087 C57.9710145,28.3826087 55.884058,27.9710145 54.0173913,27.1478261 C52.1507246,26.3246377 50.7449275,25.1942029 49.8,23.7565217 C49.5815585,23.4241691 49.3820537,23.0077052 49.2014855,22.5071301 C48.680326,21.0624026 49.4290407,19.4687433 50.873773,18.9475974 C51.176401,18.838433 51.4956763,18.7826087 51.8173913,18.7826087 C53.5815345,18.7826087 55.1857488,19.8051678 55.9305006,21.4044007 C56.0824493,21.73068 56.2505433,21.9784885 56.4347826,22.1478261 C57.2231884,22.8724638 58.5043478,23.2347826 60.2782609,23.2347826 C61.4144928,23.2347826 62.3101449,22.9913043 62.9652174,22.5043478 C63.6202899,22.0173913 63.9478261,21.3275362 63.9478261,20.4347826 Z" id="Path" fill="#000000" fill-rule="nonzero"></path>
        <path d="M94,4.85217391 L92.373913,4.85217391 C90.0158973,4.85217391 88.1043478,6.76372337 88.1043478,9.12173913 L88.1043478,24.573913 C88.1043478,26.4660886 86.5704364,28 84.6782609,28 C82.7860853,28 81.2521739,26.4660886 81.2521739,24.573913 L81.2521739,9.04347826 C81.2521739,6.72868479 79.375663,4.85217391 77.0608696,4.85217391 L75.5130435,4.85217391 C74.0530907,4.85217391 72.8695652,3.66864838 72.8695652,2.20869565 C72.8695652,0.748742922 74.0530907,-0.434782609 75.5130435,-0.434782609 L94,-0.434782609 C95.4599527,-0.434782609 96.6434783,0.748742922 96.6434783,2.20869565 C96.6434783,3.66864838 95.4599527,4.85217391 94,4.85217391 Z" id="Path" fill="#000000" fill-rule="nonzero"></path>
        <path d="M114.8,16.6782609 L111.921739,16.6782609 C108.872167,16.6782609 106.4,19.1504277 106.4,22.2 L106.4,24.573913 C106.4,26.4660886 104.866089,28 102.973913,28 C101.081737,28 99.5478261,26.4660886 99.5478261,24.573913 L99.5478261,9.06956522 C99.5478261,3.82045886 103.803068,-0.434782609 109.052174,-0.434782609 L115.913043,-0.434782609 C117.372996,-0.434782609 118.556522,0.748742922 118.556522,2.20869565 C118.556522,3.66864838 117.372996,4.85217391 115.913043,4.85217391 L109.669565,4.85217391 C107.863834,4.85217391 106.4,6.31600812 106.4,8.12173913 C106.4,9.92747014 107.863834,11.3913043 109.669565,11.3913043 L114.8,11.3913043 C116.259953,11.3913043 117.443478,12.5748299 117.443478,14.0347826 C117.443478,15.4947353 116.259953,16.6782609 114.8,16.6782609 Z" id="Path" fill="#E86F00" fill-rule="nonzero"></path>
        <path d="M145.495652,14.3652174 C145.495652,17.1362319 144.982609,19.5913043 143.956522,21.7304348 C142.930435,23.8695652 141.469565,25.5130435 139.573913,26.6608696 C137.678261,27.8086957 135.518841,28.3826087 133.095652,28.3826087 C130.672464,28.3826087 128.524638,27.826087 126.652174,26.7130435 C124.77971,25.6 123.318841,24.0086957 122.269565,21.9391304 C121.22029,19.8695652 120.666667,17.4956522 120.608696,14.8173913 L120.608696,13.2173913 C120.608696,10.4347826 121.121739,7.97681159 122.147826,5.84347826 C123.173913,3.71014493 124.64058,2.06376812 126.547826,0.904347826 C128.455072,-0.255072464 130.626087,-0.834782609 133.06087,-0.834782609 C135.472464,-0.834782609 137.62029,-0.260869565 139.504348,0.886956522 C141.388406,2.03478261 142.855072,3.66666667 143.904348,5.7826087 C144.953623,7.89855072 145.484058,10.3246377 145.495652,13.0608696 L145.495652,14.3652174 Z M138.521739,13.1826087 C138.521739,10.3536232 138.049275,8.2057971 137.104348,6.73913043 C136.15942,5.27246377 134.811594,4.53913043 133.06087,4.53913043 C129.617391,4.53913043 127.802899,7.11884058 127.617391,12.2782609 L127.582609,14.3652174 C127.582609,17.1478261 128.046377,19.2898551 128.973913,20.7913043 C129.901449,22.2927536 131.275362,23.0434783 133.095652,23.0434783 C134.823188,23.0434783 136.156522,22.3072464 137.095652,20.8347826 C138.034783,19.3623188 138.510145,17.2463768 138.521739,14.4869565 L138.521739,13.1826087 Z" id="Shape" fill="#E86F00" fill-rule="nonzero"></path>
        <path d="M173.113043,14.3652174 C173.113043,17.1362319 172.6,19.5913043 171.573913,21.7304348 C170.547826,23.8695652 169.086957,25.5130435 167.191304,26.6608696 C165.295652,27.8086957 163.136232,28.3826087 160.713043,28.3826087 C158.289855,28.3826087 156.142029,27.826087 154.269565,26.7130435 C152.397101,25.6 150.936232,24.0086957 149.886957,21.9391304 C148.837681,19.8695652 148.284058,17.4956522 148.226087,14.8173913 L148.226087,13.2173913 C148.226087,10.4347826 148.73913,7.97681159 149.765217,5.84347826 C150.791304,3.71014493 152.257971,2.06376812 154.165217,0.904347826 C156.072464,-0.255072464 158.243478,-0.834782609 160.678261,-0.834782609 C163.089855,-0.834782609 165.237681,-0.260869565 167.121739,0.886956522 C169.005797,2.03478261 170.472464,3.66666667 171.521739,5.7826087 C172.571014,7.89855072 173.101449,10.3246377 173.113043,13.0608696 L173.113043,14.3652174 Z M166.13913,13.1826087 C166.13913,10.3536232 165.666667,8.2057971 164.721739,6.73913043 C163.776812,5.27246377 162.428986,4.53913043 160.678261,4.53913043 C157.234783,4.53913043 155.42029,7.11884058 155.234783,12.2782609 L155.2,14.3652174 C155.2,17.1478261 155.663768,19.2898551 156.591304,20.7913043 C157.518841,22.2927536 158.892754,23.0434783 160.713043,23.0434783 C162.44058,23.0434783 163.773913,22.3072464 164.713043,20.8347826 C165.652174,19.3623188 166.127536,17.2463768 166.13913,14.4869565 L166.13913,13.1826087 Z" id="Shape" fill="#E86F00" fill-rule="nonzero"></path>
        <path d="M176.66087,22 L176.66087,5.56521739 C176.66087,2.25150889 179.347161,-0.434782609 182.66087,-0.434782609 L185.808696,-0.434782609 C188.324638,-0.434782609 190.585507,0.133333333 192.591304,1.26956522 C194.597101,2.4057971 196.162319,4.01449275 197.286957,6.09565217 C198.411594,8.17681159 198.97971,10.5043478 198.991304,13.0782609 L198.991304,14.3826087 C198.991304,16.9913043 198.443478,19.3275362 197.347826,21.3913043 C196.252174,23.4550725 194.704348,25.0695652 192.704348,26.2347826 C190.704348,27.4 188.469565,27.9884058 186,28 L182.66087,28 C179.347161,28 176.66087,25.3137085 176.66087,22 Z M183.513043,7.14782609 L183.513043,20.3478261 C183.513043,21.6088763 184.492732,22.641108 185.732524,22.724938 L185.895652,22.7304348 C187.855072,22.7304348 189.362319,22.0289855 190.417391,20.626087 C191.472464,19.2231884 192,17.142029 192,14.3826087 L192,13.1478261 C192,10.4115942 191.472464,8.34492754 190.417391,6.94782609 C189.362319,5.55072464 187.826087,4.85217391 185.808696,4.85217391 C184.540842,4.85217391 183.513043,5.8799724 183.513043,7.14782609 Z" id="Shape" fill="#E86F00" fill-rule="nonzero"></path>
    </g>
</svg>